<svg width="190" height="146" viewBox="0 0 190 146" fill="none" xmlns="http://www.w3.org/2000/svg"><rect x="110" y="78" width="80" height="36" rx="4" fill="url(#3763evzlea)"/><g clip-path="url(#trd4c60okb)"><path fill-rule="evenodd" clip-rule="evenodd" d="M123 86c-2.763 0-5 2.237-5 5a4.996 4.996 0 0 0 3.419 4.744c.25.043.344-.106.344-.238 0-.118-.007-.512-.007-.931-1.256.231-1.581-.306-1.681-.588-.056-.143-.3-.587-.513-.706-.174-.094-.424-.325-.006-.331.394-.006.675.362.769.513.45.756 1.169.543 1.456.412.044-.325.175-.544.319-.669-1.113-.125-2.275-.556-2.275-2.469 0-.543.194-.993.513-1.343-.051-.125-.226-.638.05-1.325 0 0 .418-.132 1.375.512a4.634 4.634 0 0 1 1.25-.169c.425 0 .85.057 1.25.17.956-.65 1.375-.513 1.375-.513.275.687.1 1.2.05 1.325.318.35.512.793.512 1.343 0 1.92-1.169 2.344-2.281 2.47.181.156.337.456.337.924 0 .669-.006 1.207-.006 1.375 0 .132.094.288.344.238A5.008 5.008 0 0 0 128 91c0-2.763-2.238-5-5-5Z" fill="#868593"/></g><path d="M132.639 94v-5.818h.85v2.162h.051c.049-.091.12-.196.213-.316.093-.119.221-.223.386-.312.165-.091.383-.136.654-.136.352 0 .666.089.943.267.276.178.493.434.65.77.159.335.239.738.239 1.21 0 .471-.079.876-.236 1.213a1.836 1.836 0 0 1-.648.775c-.274.18-.588.27-.94.27-.265 0-.482-.044-.65-.133a1.22 1.22 0 0 1-.392-.313 2.328 2.328 0 0 1-.219-.318h-.071V94h-.83Zm.833-2.182c0 .307.044.576.133.807.089.231.218.412.386.543a.992.992 0 0 0 .62.193.993.993 0 0 0 .636-.202c.171-.136.299-.32.387-.554.089-.233.133-.495.133-.787 0-.288-.044-.546-.131-.775a1.187 1.187 0 0 0-.386-.543 1.01 1.01 0 0 0-.639-.199c-.246 0-.455.064-.625.19a1.166 1.166 0 0 0-.384.532 2.22 2.22 0 0 0-.13.795Zm5.377 2.279c-.277 0-.527-.051-.75-.154a1.265 1.265 0 0 1-.532-.451 1.302 1.302 0 0 1-.193-.725c0-.246.048-.449.142-.608.095-.159.223-.285.384-.378.161-.093.341-.163.54-.21.198-.047.401-.083.608-.108l.636-.074a.935.935 0 0 0 .355-.1c.074-.045.111-.118.111-.22v-.02c0-.249-.07-.441-.21-.577-.139-.137-.345-.205-.62-.205-.286 0-.511.064-.676.19a1.021 1.021 0 0 0-.338.418l-.798-.182c.095-.265.233-.479.415-.642.183-.165.394-.284.633-.358.239-.076.49-.114.753-.114.174 0 .359.021.554.063.197.04.381.114.551.222.172.108.314.262.423.463.11.199.165.457.165.775V94h-.829v-.597h-.035c-.054.11-.137.218-.247.324-.11.106-.251.194-.423.264a1.64 1.64 0 0 1-.619.106Zm.184-.682c.235 0 .436-.047.603-.14a.976.976 0 0 0 .383-.363.944.944 0 0 0 .134-.486v-.562a.449.449 0 0 1-.176.085 2.779 2.779 0 0 1-.293.065l-.321.049-.261.034a2.1 2.1 0 0 0-.452.105.77.77 0 0 0-.324.213.53.53 0 0 0-.119.363c0 .21.077.37.233.478.155.106.353.159.593.159Zm4.939.673c-.423 0-.786-.096-1.091-.287a1.9 1.9 0 0 1-.699-.798 2.656 2.656 0 0 1-.244-1.165c0-.443.083-.834.25-1.173a1.91 1.91 0 0 1 .704-.799c.303-.19.66-.287 1.071-.287.332 0 .627.062.886.185.26.121.469.292.628.512.161.22.257.476.287.77h-.826a.994.994 0 0 0-.313-.529c-.161-.148-.377-.221-.648-.221-.236 0-.444.062-.622.187a1.21 1.21 0 0 0-.412.528 2.027 2.027 0 0 0-.148.807c0 .318.049.593.145.824.097.231.233.41.409.537.178.127.388.19.628.19.161 0 .307-.029.438-.088a.896.896 0 0 0 .332-.258.972.972 0 0 0 .191-.404h.826c-.03.282-.122.534-.275.756a1.588 1.588 0 0 1-.617.523c-.256.127-.556.19-.9.19Zm3.482-1.568-.006-1.037h.148l1.739-1.847h1.017l-1.983 2.103h-.134l-.781.78Zm-.781 1.48v-5.818h.849V94h-.849Zm2.755 0-1.562-2.074.585-.594 2.02 2.668h-1.043Zm3.399.088c-.43 0-.8-.092-1.111-.275a1.87 1.87 0 0 1-.716-.782c-.167-.337-.25-.732-.25-1.184 0-.447.083-.841.25-1.182a1.94 1.94 0 0 1 .705-.799 1.947 1.947 0 0 1 1.062-.287c.246 0 .485.041.716.123.231.081.438.209.622.383.184.175.329.4.435.68.106.276.159.612.159 1.008v.3h-3.469v-.635h2.636c0-.224-.045-.422-.136-.594a1.036 1.036 0 0 0-.957-.563c-.239 0-.447.059-.625.176a1.178 1.178 0 0 0-.409.455 1.308 1.308 0 0 0-.142.605v.497c0 .292.051.54.153.745.104.204.249.36.435.468.185.106.402.16.65.16.161 0 .308-.023.441-.069a.907.907 0 0 0 .565-.554l.804.145a1.46 1.46 0 0 1-.347.622 1.672 1.672 0 0 1-.622.412 2.326 2.326 0 0 1-.849.145Zm3.664-2.679V94h-.85v-4.364h.816v.71h.054c.1-.23.257-.416.471-.556.216-.14.488-.21.816-.21.297 0 .557.062.781.187.223.123.397.307.52.551.123.245.184.547.184.906V94h-.849v-2.673c0-.317-.082-.564-.247-.742-.165-.18-.391-.27-.679-.27-.197 0-.372.043-.526.128a.923.923 0 0 0-.361.375 1.24 1.24 0 0 0-.13.591Zm5.565 2.676a1.69 1.69 0 0 1-.943-.27 1.836 1.836 0 0 1-.648-.775c-.155-.337-.233-.742-.233-1.213 0-.472.079-.875.236-1.21.159-.336.377-.592.653-.77.277-.178.59-.267.941-.267.271 0 .488.045.653.136.167.089.296.193.387.312.092.12.164.225.215.316h.052v-2.162h.849V94h-.83v-.679h-.071a2.275 2.275 0 0 1-.221.318 1.23 1.23 0 0 1-.392.313c-.167.089-.383.133-.648.133Zm.188-.724a.99.99 0 0 0 .619-.193c.17-.131.299-.312.386-.543.089-.231.134-.5.134-.807a2.22 2.22 0 0 0-.131-.795 1.171 1.171 0 0 0-.383-.531 1.01 1.01 0 0 0-.625-.19c-.256 0-.469.065-.64.198-.17.133-.299.313-.386.543-.085.229-.128.487-.128.775 0 .292.044.554.131.787.087.233.216.418.386.554.173.135.385.202.637.202Z" fill="#868593"/><rect x="110.5" y="78.5" width="79" height="35" rx="3.5" stroke="url(#mnqe9bbhjc)" stroke-opacity=".1"/><rect y="86" width="80" height="36" rx="4" fill="url(#yye4xpbscd)"/><g clip-path="url(#yrjgcjm84e)"><path fill-rule="evenodd" clip-rule="evenodd" d="M13 94c-2.762 0-5 2.237-5 5a4.997 4.997 0 0 0 3.419 4.744c.25.044.343-.107.343-.238 0-.119-.006-.512-.006-.931-1.256.231-1.581-.306-1.681-.588-.056-.143-.3-.587-.512-.706-.176-.094-.426-.325-.007-.331.394-.006.675.362.769.512.45.757 1.169.544 1.456.413.044-.325.175-.544.319-.669-1.112-.125-2.275-.556-2.275-2.469 0-.543.194-.993.513-1.343-.05-.125-.225-.638.05-1.325 0 0 .418-.132 1.374.512a4.64 4.64 0 0 1 1.25-.169c.425 0 .85.057 1.25.17.957-.65 1.375-.513 1.375-.513.275.687.1 1.2.05 1.325.32.35.513.793.513 1.343 0 1.919-1.169 2.344-2.281 2.469.181.156.337.457.337.925 0 .669-.006 1.206-.006 1.375 0 .131.094.288.344.238A5.009 5.009 0 0 0 18 99c0-2.763-2.238-5-5-5Z" fill="#868593"/></g><path d="M23.84 102.097c-.276 0-.526-.052-.75-.154a1.262 1.262 0 0 1-.53-.452 1.292 1.292 0 0 1-.194-.724c0-.246.048-.449.143-.608a1.05 1.05 0 0 1 .383-.378c.161-.093.341-.163.54-.21.199-.047.401-.083.608-.108l.636-.074a.935.935 0 0 0 .355-.1c.074-.045.111-.118.111-.22v-.02c0-.249-.07-.441-.21-.577-.138-.137-.345-.205-.62-.205-.286 0-.51.064-.676.19a1.018 1.018 0 0 0-.338.418l-.798-.182c.095-.265.233-.479.415-.642.184-.165.395-.284.633-.358.239-.076.49-.114.753-.114.174 0 .359.021.554.063.197.04.38.114.551.222.173.108.314.262.424.463.11.199.164.457.164.775V102h-.83v-.597h-.033c-.055.11-.138.218-.247.324-.11.106-.251.194-.424.264a1.623 1.623 0 0 1-.62.106Zm.186-.682c.234 0 .435-.047.602-.139a.975.975 0 0 0 .383-.364.946.946 0 0 0 .134-.486v-.562a.444.444 0 0 1-.176.085 2.693 2.693 0 0 1-.293.065l-.32.048-.262.035c-.165.02-.316.055-.452.105a.771.771 0 0 0-.324.213.532.532 0 0 0-.12.363c0 .211.078.37.234.478.155.106.353.159.594.159Zm3.95-2.006V102h-.85v-4.364h.815v.71h.054c.1-.23.258-.416.472-.556.216-.14.487-.21.815-.21.297 0 .558.062.781.187.224.123.397.307.52.551.123.245.185.547.185.906V102h-.85v-2.673c0-.317-.082-.564-.247-.742-.165-.18-.39-.27-.679-.27-.197 0-.372.043-.525.128a.92.92 0 0 0-.361.375c-.087.163-.13.36-.13.591Zm5.2 2.688c-.276 0-.526-.052-.75-.154a1.263 1.263 0 0 1-.53-.452 1.292 1.292 0 0 1-.194-.724c0-.246.048-.449.142-.608a1.05 1.05 0 0 1 .384-.378c.161-.093.34-.163.54-.21a5.37 5.37 0 0 1 .608-.108l.636-.074a.935.935 0 0 0 .355-.1c.074-.045.111-.118.111-.22v-.02c0-.249-.07-.441-.21-.577-.139-.137-.345-.205-.62-.205-.286 0-.51.064-.676.19a1.018 1.018 0 0 0-.338.418l-.798-.182c.095-.265.233-.479.415-.642.183-.165.395-.284.633-.358.239-.076.49-.114.753-.114.174 0 .359.021.554.063.197.04.38.114.551.222.172.108.314.262.424.463.11.199.164.457.164.775V102h-.83v-.597h-.033c-.055.11-.138.218-.248.324-.11.106-.25.194-.423.264a1.624 1.624 0 0 1-.62.106Zm.185-.682c.235 0 .436-.047.603-.139a.974.974 0 0 0 .383-.364.946.946 0 0 0 .134-.486v-.562a.444.444 0 0 1-.176.085 2.691 2.691 0 0 1-.293.065l-.32.048-.262.035c-.165.02-.316.055-.452.105a.772.772 0 0 0-.324.213.532.532 0 0 0-.12.363c0 .211.078.37.234.478.155.106.353.159.593.159Zm3.95-5.233V102h-.85v-5.818h.85Zm1.68 7.454a1.76 1.76 0 0 1-.58-.093l.205-.696c.155.041.293.059.415.054a.5.5 0 0 0 .32-.137c.095-.085.179-.224.25-.417l.106-.29-1.597-4.42h.91l1.104 3.386h.046l1.105-3.387h.912l-1.798 4.946c-.084.228-.19.42-.319.577a1.231 1.231 0 0 1-.46.358c-.178.08-.384.119-.62.119Zm6.031-6v.682h-2.383v-.682h2.383Zm-1.744-1.045h.85v4.128c0 .165.024.289.073.372.05.081.113.137.19.168.08.028.166.042.259.042.068 0 .128-.005.179-.014l.12-.023.153.702a1.66 1.66 0 0 1-.551.091 1.497 1.497 0 0 1-.626-.119 1.08 1.08 0 0 1-.468-.387c-.12-.174-.18-.393-.18-.656v-4.304ZM45.962 102v-4.364h.85V102h-.85Zm.429-5.037a.54.54 0 0 1-.381-.148.48.48 0 0 1-.156-.358c0-.14.052-.26.156-.358.106-.1.233-.15.38-.15.148 0 .274.05.379.15a.47.47 0 0 1 .159.358.476.476 0 0 1-.16.358.53.53 0 0 1-.377.148Zm3.4 5.125c-.421 0-.785-.096-1.09-.287a1.898 1.898 0 0 1-.699-.798 2.658 2.658 0 0 1-.244-1.165c0-.443.083-.834.25-1.173.166-.341.401-.607.704-.799.303-.19.66-.287 1.071-.287.332 0 .627.062.887.185.26.121.468.292.628.512.16.22.256.476.286.77h-.826a.99.99 0 0 0-.313-.529c-.16-.148-.377-.221-.647-.221-.237 0-.445.062-.623.187-.176.123-.313.3-.411.528a2.018 2.018 0 0 0-.148.807c0 .318.048.593.145.824.096.231.233.41.409.537.178.127.387.19.628.19.16 0 .306-.029.437-.088a.893.893 0 0 0 .333-.258.972.972 0 0 0 .19-.404h.826c-.03.283-.122.534-.275.756a1.584 1.584 0 0 1-.616.523c-.256.127-.556.19-.901.19Zm5.972-3.386-.77.136a.911.911 0 0 0-.154-.281.76.76 0 0 0-.278-.219 1.007 1.007 0 0 0-.44-.085c-.24 0-.442.054-.602.162-.161.106-.242.243-.242.412 0 .145.054.263.162.352.108.089.282.162.523.219l.693.159c.401.093.7.236.898.429.197.193.295.444.295.753 0 .261-.076.494-.227.699-.15.202-.36.361-.628.477a2.332 2.332 0 0 1-.93.173c-.488 0-.886-.104-1.195-.312a1.324 1.324 0 0 1-.568-.895l.82-.125a.782.782 0 0 0 .316.485c.16.108.367.162.622.162.279 0 .501-.057.668-.173.166-.117.25-.26.25-.429a.447.447 0 0 0-.154-.344c-.1-.092-.254-.162-.463-.21l-.738-.162c-.407-.093-.709-.24-.904-.443a1.07 1.07 0 0 1-.29-.77 1.1 1.1 0 0 1 .217-.676c.143-.193.342-.344.596-.452.254-.11.545-.165.872-.165.472 0 .843.103 1.114.307.27.203.45.475.537.816Z" fill="#868593"/><rect x=".5" y="86.5" width="79" height="35" rx="3.5" stroke="url(#cyjxfu3j1f)" stroke-opacity=".1"/><rect x="55" y="110" width="80" height="36" rx="4" fill="url(#bsdkx2krkg)"/><g clip-path="url(#8x6nitnzxh)"><path fill-rule="evenodd" clip-rule="evenodd" d="M68 118c-2.763 0-5 2.237-5 5a4.997 4.997 0 0 0 3.419 4.744c.25.044.344-.107.344-.238 0-.119-.007-.512-.007-.931-1.256.231-1.581-.306-1.681-.588-.056-.143-.3-.587-.513-.706-.174-.094-.424-.325-.006-.331.394-.006.675.362.769.512.45.757 1.169.544 1.456.413.044-.325.175-.544.319-.669-1.112-.125-2.275-.556-2.275-2.468 0-.544.194-.994.513-1.344-.05-.125-.225-.638.05-1.325 0 0 .418-.131 1.374.512a4.66 4.66 0 0 1 1.25-.169c.425 0 .85.057 1.25.169.957-.65 1.376-.512 1.376-.512.274.687.1 1.2.05 1.325.318.35.512.794.512 1.344 0 1.918-1.169 2.343-2.281 2.468.181.156.337.457.337.925 0 .669-.006 1.206-.006 1.375 0 .131.094.288.344.238A5.009 5.009 0 0 0 73 123c0-2.763-2.237-5-5-5Z" fill="#868593"/></g><path d="M79.648 121.636v.682h-2.466v-.682h2.466ZM77.858 126v-4.869c0-.273.06-.499.179-.679.12-.182.277-.318.474-.407.197-.09.411-.136.642-.136.17 0 .317.014.438.043.121.026.211.051.27.074l-.2.687a4.398 4.398 0 0 0-.153-.04.878.878 0 0 0-.227-.025c-.206 0-.354.051-.443.153-.087.102-.13.25-.13.443V126h-.85Zm2.666 0v-4.364h.821v.694h.046c.08-.235.22-.42.42-.554.203-.137.432-.205.688-.205a3.44 3.44 0 0 1 .36.02v.812a1.819 1.819 0 0 0-.181-.031 1.77 1.77 0 0 0-.262-.02c-.2 0-.38.043-.537.128a.947.947 0 0 0-.505.855V126h-.85Zm4.752.088c-.409 0-.766-.094-1.07-.281a1.9 1.9 0 0 1-.711-.787c-.169-.337-.253-.731-.253-1.182 0-.453.084-.848.253-1.187a1.89 1.89 0 0 1 .71-.79 1.999 1.999 0 0 1 1.071-.281c.41 0 .766.093 1.071.281.305.187.542.451.71.79.17.339.253.734.253 1.187 0 .451-.084.845-.252 1.182a1.9 1.9 0 0 1-.71.787 2.008 2.008 0 0 1-1.072.281Zm.003-.713c.265 0 .485-.07.66-.21.174-.14.302-.327.386-.56.085-.233.127-.489.127-.77a2.22 2.22 0 0 0-.127-.767 1.248 1.248 0 0 0-.387-.565 1.01 1.01 0 0 0-.659-.213c-.267 0-.489.071-.665.213-.174.142-.304.33-.389.565a2.265 2.265 0 0 0-.125.767c0 .281.042.537.125.77.085.233.215.42.39.56.175.14.397.21.664.21Zm3.829-1.966V126h-.85v-4.364h.816v.711h.054c.1-.231.257-.417.471-.557.216-.14.488-.21.816-.21.297 0 .557.062.781.187.224.123.397.307.52.551.123.244.185.547.185.906V126h-.85v-2.673c0-.317-.082-.564-.247-.742-.165-.18-.391-.27-.679-.27-.197 0-.372.043-.526.128a.917.917 0 0 0-.36.375 1.24 1.24 0 0 0-.131.591Zm5.969-1.773v.682h-2.384v-.682h2.384Zm-1.745-1.045h.85v4.128c0 .165.024.289.074.372.049.081.112.137.19.168.08.028.166.042.258.042.069 0 .128-.005.18-.014l.119-.023.153.702a1.66 1.66 0 0 1-.551.091 1.497 1.497 0 0 1-.625-.119 1.08 1.08 0 0 1-.469-.387c-.119-.174-.179-.393-.179-.656v-4.304Zm4.518 5.497c-.43 0-.8-.092-1.11-.276a1.867 1.867 0 0 1-.717-.781c-.166-.337-.25-.732-.25-1.184 0-.447.084-.841.25-1.182.169-.341.404-.607.705-.799a1.95 1.95 0 0 1 1.063-.286c.246 0 .484.04.715.122.231.081.439.209.623.383.183.174.328.401.434.679.106.277.16.613.16 1.009v.301h-3.47v-.636h2.637c0-.224-.046-.422-.136-.594a1.031 1.031 0 0 0-.384-.412 1.066 1.066 0 0 0-.574-.151c-.239 0-.447.059-.625.176a1.183 1.183 0 0 0-.409.455 1.312 1.312 0 0 0-.142.605v.497c0 .292.051.54.153.745.105.204.25.36.435.468.186.106.403.159.65.159.162 0 .308-.022.441-.068a.911.911 0 0 0 .565-.554l.804.145c-.064.237-.18.444-.346.622a1.675 1.675 0 0 1-.622.412 2.32 2.32 0 0 1-.85.145Zm3.664-2.679V126h-.849v-4.364h.815v.711h.054c.1-.231.258-.417.472-.557.216-.14.487-.21.815-.21.297 0 .558.062.781.187.224.123.397.307.52.551.123.244.185.547.185.906V126h-.85v-2.673c0-.317-.082-.564-.247-.742-.165-.18-.391-.27-.679-.27-.197 0-.372.043-.525.128a.914.914 0 0 0-.361.375 1.24 1.24 0 0 0-.131.591Zm5.566 2.676c-.353 0-.667-.09-.944-.27a1.836 1.836 0 0 1-.647-.775c-.156-.337-.233-.742-.233-1.213 0-.472.078-.875.235-1.211.16-.335.377-.591.654-.769.276-.178.59-.267.94-.267.271 0 .489.045.654.136.166.089.295.193.386.312.093.12.165.225.216.316h.051v-2.162h.849V126h-.829v-.679h-.071a2.181 2.181 0 0 1-.222.318c-.094.12-.225.224-.392.313-.166.089-.382.133-.647.133Zm.187-.724a.993.993 0 0 0 .619-.193c.171-.131.3-.312.387-.543.089-.231.133-.5.133-.807 0-.303-.043-.568-.13-.795a1.172 1.172 0 0 0-.384-.532 1.016 1.016 0 0 0-.625-.19c-.256 0-.469.066-.639.199a1.218 1.218 0 0 0-.387.543 2.214 2.214 0 0 0-.127.775c0 .292.043.554.13.787.087.233.216.418.387.554a.998.998 0 0 0 .636.202Z" fill="#868593"/><rect x="55.5" y="110.5" width="79" height="35" rx="3.5" stroke="url(#naak4458zi)" stroke-opacity=".1"/><rect x="42" width="105" height="26" rx="4" fill="#3D2259"/><g clip-path="url(#0259ghewkj)"><path d="m57.333 13 .625.013v-.026l-.625.013Zm-4.666 0-.625-.013v.026l.625-.013Zm7.541 0A5.208 5.208 0 0 1 55 18.208v1.25A6.458 6.458 0 0 0 61.458 13h-1.25ZM55 18.208A5.208 5.208 0 0 1 49.792 13h-1.25A6.458 6.458 0 0 0 55 19.458v-1.25ZM49.792 13A5.208 5.208 0 0 1 55 7.792v-1.25A6.458 6.458 0 0 0 48.542 13h1.25ZM55 7.792A5.208 5.208 0 0 1 60.208 13h1.25A6.458 6.458 0 0 0 55 6.542v1.25Zm-5.833 5.833h11.666v-1.25H49.167v1.25Zm5.371-6.037a8.3 8.3 0 0 1 2.17 5.425l1.25-.026a9.55 9.55 0 0 0-2.496-6.242l-.924.843Zm2.17 5.399a8.3 8.3 0 0 1-2.17 5.425l.924.843a9.55 9.55 0 0 0 2.496-6.242l-1.25-.026Zm-1.246 5.425a8.3 8.3 0 0 1-2.17-5.425l-1.25.026a9.55 9.55 0 0 0 2.496 6.242l.924-.843Zm-2.17-5.399a8.3 8.3 0 0 1 2.17-5.425l-.924-.843a9.55 9.55 0 0 0-2.496 6.242l1.25.026Z" fill="#A667E4"/></g><path d="M67.307 12.377c0 .932.58 1.518 1.746 1.781l.955.217c.773.176 1.06.416 1.06.885 0 .556-.515.914-1.318.914-.773 0-1.3-.31-1.43-.856h-1.183c.105 1.125 1.078 1.8 2.584 1.8 1.558 0 2.56-.774 2.56-1.987 0-.938-.568-1.477-1.828-1.758l-.926-.205c-.744-.164-1.054-.416-1.054-.873 0-.527.486-.879 1.236-.879.703 0 1.201.322 1.307.844h1.125c-.106-1.108-1.02-1.776-2.414-1.776-1.465 0-2.42.75-2.42 1.893Zm8.66-3.51v1.781h-1.688v.967h1.688v3.451c0 1.371.715 1.957 2.35 1.957.246 0 1.171-.023 1.3-.046v-.961c-.14.017-.92.029-1.219.029-.814 0-1.254-.346-1.254-.979v-3.45h2.508v-.968h-2.525v-1.78h-1.16Zm8.367 5.285c0-1.564.803-2.46 2.244-2.46.352 0 .768.076 1.055.181v-1.289c-.211-.088-.557-.135-.92-.135-1.225 0-1.969.592-2.22 1.793h-.165v-1.629h-2.525v.903h1.388v4.582h-1.265V17h4.347v-.902h-1.939v-1.946Zm7.734-5.033c.528 0 .909-.363.909-.867 0-.51-.381-.873-.909-.873-.521 0-.908.363-.908.873 0 .504.387.867.908.867ZM94.764 17v-.95H92.7v-5.437H89.45v.95h2.104v4.488h-2.15V17h5.36Zm5.115-6.486c-.926 0-1.582.386-1.881 1.113h-.111v-1.014h-1.178v8.532h1.207v-3.159h.111c.258.715.926 1.12 1.852 1.12 1.471 0 2.408-1.05 2.408-2.713v-1.166c0-1.665-.937-2.713-2.408-2.713Zm-.393 1.043c.985 0 1.612.691 1.612 1.787v.955c0 1.096-.627 1.793-1.612 1.793-.978 0-1.6-.692-1.6-1.793v-.955c0-1.096.622-1.787 1.6-1.787Zm8.936 3.755c-.158.522-.727.844-1.483.844-1.007 0-1.658-.691-1.658-1.77V14.1h4.283v-.692c0-1.816-1.013-2.918-2.683-2.918-1.658 0-2.754 1.108-2.754 2.79v.972c0 1.816 1.025 2.871 2.818 2.871 1.377 0 2.432-.738 2.602-1.81h-1.125Zm-1.553-3.86c.967 0 1.541.685 1.541 1.821h-3.129c0-1.142.598-1.822 1.588-1.822Zm10.389 7.44V17.88h-6.082v1.014h6.082Zm3.387-5.495h-.088V8.122h-1.172V17h1.172v-2.268l.802-.785 2.08 3.053h1.383l-2.613-3.82 2.443-2.567h-1.394l-2.613 2.784Zm10.031 1.915c-.158.522-.727.844-1.483.844-1.007 0-1.658-.691-1.658-1.77V14.1h4.283v-.692c0-1.816-1.013-2.918-2.683-2.918-1.658 0-2.754 1.108-2.754 2.79v.972c0 1.816 1.025 2.871 2.818 2.871 1.377 0 2.432-.738 2.602-1.81h-1.125Zm-1.553-3.86c.967 0 1.541.685 1.541 1.821h-3.129c0-1.142.598-1.822 1.588-1.822Zm5.525 7.833c1.301 0 1.899-.504 2.456-2.092l2.343-6.58h-1.248l-1.67 5.227h-.082l-1.681-5.227h-1.289l2.326 6.434-.1.316c-.234.674-.568.932-1.183.932-.094 0-.288-.006-.352-.018v.99c.076.006.299.018.48.018Z" fill="#A667E4"/><path d="M95 27v80m0 0 3-3m-3 3-3-3" stroke="url(#bh1yd3xnqk)" stroke-opacity=".5" stroke-width="1.5"/><path d="M95 27v4.261a12 12 0 0 0 7.05 10.931l38.9 17.616A12 12 0 0 1 148 70.739V75m0 0-3-3m3 3 3-3" stroke="url(#aae3txucdl)" stroke-opacity=".5" stroke-width="1.5"/><path d="M95 27v4.261a12 12 0 0 1-7.05 10.931l-38.9 17.616A12 12 0 0 0 42 70.739V83m0 0 3-3m-3 3-3-3" stroke="url(#j48h4yimcm)" stroke-opacity=".5" stroke-width="1.5"/><defs><linearGradient id="3763evzlea" x1="150" y1="85.5" x2="150" y2="111" gradientUnits="userSpaceOnUse"><stop stop-color="#fff" stop-opacity=".07"/><stop offset="1" stop-color="#fff" stop-opacity="0"/></linearGradient><linearGradient id="mnqe9bbhjc" x1="150" y1="75.5" x2="150" y2="108" gradientUnits="userSpaceOnUse"><stop stop-color="#fff"/><stop offset="1" stop-color="#fff" stop-opacity="0"/></linearGradient><linearGradient id="yye4xpbscd" x1="40" y1="93.5" x2="40" y2="119" gradientUnits="userSpaceOnUse"><stop stop-color="#fff" stop-opacity=".07"/><stop offset="1" stop-color="#fff" stop-opacity="0"/></linearGradient><linearGradient id="cyjxfu3j1f" x1="40" y1="83.5" x2="40" y2="116" gradientUnits="userSpaceOnUse"><stop stop-color="#fff"/><stop offset="1" stop-color="#fff" stop-opacity="0"/></linearGradient><linearGradient id="bsdkx2krkg" x1="95" y1="117.5" x2="95" y2="143" gradientUnits="userSpaceOnUse"><stop stop-color="#fff" stop-opacity=".07"/><stop offset="1" stop-color="#fff" stop-opacity="0"/></linearGradient><linearGradient id="naak4458zi" x1="95" y1="107.5" x2="95" y2="140" gradientUnits="userSpaceOnUse"><stop stop-color="#fff"/><stop offset="1" stop-color="#fff" stop-opacity="0"/></linearGradient><linearGradient id="bh1yd3xnqk" x1="94.411" y1="27" x2="94.411" y2="107" gradientUnits="userSpaceOnUse"><stop offset=".411" stop-color="#9449DF"/><stop offset="1" stop-color="#E83BF7"/></linearGradient><linearGradient id="aae3txucdl" x1="117.5" y1="27" x2="117.5" y2="75" gradientUnits="userSpaceOnUse"><stop offset=".411" stop-color="#9449DF"/><stop offset="1" stop-color="#E83BF7"/></linearGradient><linearGradient id="j48h4yimcm" x1="72.5" y1="27" x2="72.5" y2="83" gradientUnits="userSpaceOnUse"><stop offset=".411" stop-color="#9449DF"/><stop offset="1" stop-color="#E83BF7"/></linearGradient><clipPath id="trd4c60okb"><path fill="#fff" transform="translate(118 86)" d="M0 0h10v10H0z"/></clipPath><clipPath id="yrjgcjm84e"><path fill="#fff" transform="translate(8 94)" d="M0 0h10v10H0z"/></clipPath><clipPath id="8x6nitnzxh"><path fill="#fff" transform="translate(63 118)" d="M0 0h10v10H0z"/></clipPath><clipPath id="0259ghewkj"><path fill="#fff" transform="translate(48 6)" d="M0 0h14v14H0z"/></clipPath></defs></svg>